<?xml version="1.0" encoding="utf-8"?>
<!-- Generator: Adobe Illustrator 17.0.0, SVG Export Plug-In . SVG Version: 6.00 Build 0)  -->
<!DOCTYPE svg PUBLIC "-//W3C//DTD SVG 1.1//EN" "http://www.w3.org/Graphics/SVG/1.1/DTD/svg11.dtd">
<svg version="1.1" id="Layer_1" xmlns="http://www.w3.org/2000/svg" xmlns:xlink="http://www.w3.org/1999/xlink" x="0px" y="0px"
	 width="120px" height="30px" viewBox="0 0 120 30" enable-background="new 0 0 120 30" xml:space="preserve">
<path fill="#FFFFFF" d="M15.579,19.852c0.843,0.519,2.076,0.951,3.373,0.951c1.924,0,3.049-1.016,3.049-2.486
	c0-1.362-0.779-2.141-2.746-2.897c-2.378-0.843-3.849-2.076-3.849-4.13c0-2.271,1.881-3.957,4.713-3.957
	c1.492,0,2.573,0.346,3.222,0.714l-0.519,1.535c-0.476-0.26-1.449-0.692-2.768-0.692c-1.989,0-2.746,1.189-2.746,2.184
	c0,1.362,0.886,2.032,2.897,2.811c2.465,0.951,3.719,2.141,3.719,4.281c0,2.249-1.665,4.194-5.103,4.194
	c-1.405,0-2.94-0.41-3.719-0.93L15.579,19.852z"/>
<path fill="#FFFFFF" d="M38.781,15.743c-0.108-2.033-0.238-4.476-0.216-6.292H38.5c-0.497,1.708-1.103,3.524-1.837,5.535
	l-2.573,7.07h-1.427l-2.357-6.94c-0.692-2.054-1.276-3.936-1.687-5.665h-0.043c-0.043,1.816-0.151,4.259-0.281,6.443l-0.389,6.249
	h-1.795L27.127,7.57h2.4l2.486,7.049c0.605,1.794,1.103,3.395,1.47,4.909h0.065c0.368-1.471,0.887-3.07,1.535-4.909l2.595-7.049h2.4
	l0.908,14.574h-1.838L38.781,15.743z"/>
<path fill="#FFFFFF" d="M56.169,15.743c-0.108-2.033-0.238-4.476-0.216-6.292h-0.065c-0.497,1.708-1.103,3.524-1.837,5.535
	l-2.573,7.07H50.05l-2.357-6.94c-0.692-2.054-1.276-3.936-1.687-5.665h-0.043c-0.043,1.816-0.151,4.259-0.281,6.443l-0.389,6.249
	h-1.795L44.515,7.57h2.4l2.486,7.049c0.605,1.794,1.103,3.395,1.47,4.909h0.065c0.368-1.471,0.887-3.07,1.535-4.909l2.595-7.049h2.4
	l0.908,14.574h-1.838L56.169,15.743z"/>
<path fill="#FFFFFF" d="M63.827,9.17h-4.432v-1.6h10.79v1.6H65.73v12.974h-1.903V9.17z"/>
<path fill="#FFFFFF" d="M72.543,17.56l-1.514,4.584h-1.945L74.035,7.57h2.27l4.974,14.574h-2.011l-1.557-4.584H72.543z
	 M77.321,16.089l-1.427-4.194c-0.324-0.952-0.541-1.816-0.757-2.66h-0.043c-0.217,0.865-0.454,1.751-0.735,2.638l-1.427,4.216
	H77.321z"/>
<path fill="#FFFFFF" d="M83.162,19.852c0.843,0.519,2.076,0.951,3.373,0.951c1.924,0,3.049-1.016,3.049-2.486
	c0-1.362-0.778-2.141-2.746-2.897c-2.379-0.843-3.849-2.076-3.849-4.13c0-2.271,1.881-3.957,4.714-3.957
	c1.491,0,2.572,0.346,3.221,0.714l-0.519,1.535c-0.476-0.26-1.448-0.692-2.768-0.692c-1.989,0-2.746,1.189-2.746,2.184
	c0,1.362,0.887,2.032,2.897,2.811c2.465,0.951,3.719,2.141,3.719,4.281c0,2.249-1.665,4.194-5.103,4.194
	c-1.405,0-2.94-0.41-3.719-0.93L83.162,19.852z"/>
<path fill="#FFFFFF" d="M94.084,7.57h1.881v7.027h0.064c0.39-0.562,0.778-1.081,1.146-1.557l4.454-5.471h2.335l-5.275,6.184
	l5.687,8.39h-2.228l-4.8-7.157l-1.384,1.601v5.557h-1.881V7.57z"/>
</svg>
