<?xml version="1.0" encoding="utf-8"?>
<!-- Generator: Adobe Illustrator 17.0.0, SVG Export Plug-In . SVG Version: 6.00 Build 0)  -->
<!DOCTYPE svg PUBLIC "-//W3C//DTD SVG 1.1//EN" "http://www.w3.org/Graphics/SVG/1.1/DTD/svg11.dtd">
<svg version="1.1" id="Layer_1" xmlns="http://www.w3.org/2000/svg" xmlns:xlink="http://www.w3.org/1999/xlink" x="0px" y="0px"
	 width="120px" height="30px" viewBox="0 0 120 30" enable-background="new 0 0 120 30" xml:space="preserve">
<path fill="#3B5998" d="M3.435,21.228c1.075,0.661,2.646,1.213,4.301,1.213c2.453,0,3.887-1.295,3.887-3.17
	c0-1.737-0.993-2.729-3.501-3.694c-3.032-1.075-4.907-2.646-4.907-5.266c0-2.895,2.398-5.045,6.009-5.045
	c1.902,0,3.281,0.441,4.108,0.91L12.67,8.133c-0.606-0.331-1.847-0.882-3.529-0.882c-2.536,0-3.501,1.516-3.501,2.784
	c0,1.737,1.13,2.591,3.694,3.584c3.143,1.213,4.742,2.729,4.742,5.459c0,2.867-2.123,5.348-6.506,5.348
	c-1.792,0-3.749-0.523-4.741-1.185L3.435,21.228z"/>
<path fill="#1877F2" d="M33.018,15.99c-0.138-2.592-0.303-5.706-0.276-8.022h-0.083c-0.634,2.178-1.406,4.494-2.343,7.057
	l-3.281,9.015h-1.819l-3.005-8.849c-0.882-2.619-1.627-5.018-2.15-7.223h-0.055c-0.055,2.316-0.193,5.431-0.358,8.215l-0.496,7.967
	h-2.288L18.16,5.569h3.06l3.17,8.987c0.772,2.288,1.406,4.329,1.875,6.259h0.083c0.469-1.875,1.131-3.915,1.957-6.259l3.308-8.987
	h3.06L35.83,24.15h-2.343L33.018,15.99z"/>
<path fill="#1DA1F2" d="M55.187,15.99c-0.138-2.592-0.303-5.706-0.276-8.022h-0.083c-0.634,2.178-1.406,4.494-2.343,7.057
	l-3.281,9.015h-1.819l-3.005-8.849c-0.882-2.619-1.627-5.018-2.15-7.223h-0.055c-0.055,2.316-0.193,5.431-0.358,8.215l-0.496,7.967
	h-2.289l1.296-18.581h3.06l3.17,8.987c0.772,2.288,1.406,4.329,1.875,6.259h0.083c0.469-1.875,1.131-3.915,1.957-6.259l3.308-8.987
	h3.06l1.158,18.581h-2.343L55.187,15.99z"/>
<path fill="#FF0000" d="M64.951,7.609H59.3v-2.04h13.757v2.04h-5.679V24.15h-2.427V7.609z"/>
<path fill="#BD081C" d="M76.064,18.306l-1.93,5.845h-2.48l6.313-18.581h2.894l6.341,18.581h-2.564l-1.985-5.845H76.064z
	 M82.156,16.431l-1.819-5.348c-0.413-1.213-0.69-2.316-0.965-3.391h-0.055c-0.276,1.103-0.579,2.233-0.938,3.363l-1.819,5.376
	H82.156z"/>
<path fill="#0A66C2" d="M89.603,21.228c1.075,0.661,2.647,1.213,4.301,1.213c2.453,0,3.887-1.295,3.887-3.17
	c0-1.737-0.992-2.729-3.501-3.694c-3.033-1.075-4.907-2.646-4.907-5.266c0-2.895,2.398-5.045,6.01-5.045
	c1.901,0,3.28,0.441,4.106,0.91l-0.661,1.957c-0.606-0.331-1.846-0.882-3.529-0.882c-2.536,0-3.501,1.516-3.501,2.784
	c0,1.737,1.131,2.591,3.694,3.584c3.143,1.213,4.741,2.729,4.741,5.459c0,2.867-2.123,5.348-6.506,5.348
	c-1.792,0-3.749-0.523-4.741-1.185L89.603,21.228z"/>
<path fill="#4285F4" d="M103.528,5.569h2.398v8.96h0.082c0.497-0.717,0.992-1.378,1.462-1.985l5.679-6.975h2.977l-6.726,7.885
	l7.25,10.697h-2.84l-6.12-9.125l-1.764,2.041v7.085h-2.398V5.569z"/>
</svg>
