<?xml version="1.0" encoding="utf-8"?>
<!-- Generator: Adobe Illustrator 17.0.0, SVG Export Plug-In . SVG Version: 6.00 Build 0)  -->
<!DOCTYPE svg PUBLIC "-//W3C//DTD SVG 1.1//EN" "http://www.w3.org/Graphics/SVG/1.1/DTD/svg11.dtd">
<svg version="1.1" id="Layer_1" xmlns="http://www.w3.org/2000/svg" xmlns:xlink="http://www.w3.org/1999/xlink" x="0px" y="0px"
	 width="120px" height="40px" viewBox="0 0 120 40" enable-background="new 0 0 120 40" xml:space="preserve">
<g>
	<g>
		<linearGradient id="SVGID_1_" gradientUnits="userSpaceOnUse" x1="86.1889" y1="62.0747" x2="34.8085" y2="25.6111">
			<stop  offset="0" style="stop-color:#568FCB"/>
			<stop  offset="1" style="stop-color:#064F90"/>
		</linearGradient>
		<path fill="url(#SVGID_1_)" d="M23.376,25.909V13.373h3.577c1.899,0,3.479,0.553,4.738,1.659c1.26,1.106,1.89,2.59,1.89,4.451
			c0,1.942-0.63,3.499-1.89,4.67c-1.26,1.171-2.883,1.756-4.868,1.756H23.376z M24.995,14.813v9.663h1.821
			c1.591,0,2.834-0.434,3.727-1.303c0.893-0.869,1.339-2.085,1.339-3.65c0-1.565-0.459-2.741-1.376-3.529
			c-0.917-0.788-2.123-1.182-3.618-1.182H24.995z"/>
		<linearGradient id="SVGID_2_" gradientUnits="userSpaceOnUse" x1="89.3039" y1="57.6854" x2="37.9234" y2="21.2219">
			<stop  offset="0" style="stop-color:#568FCB"/>
			<stop  offset="1" style="stop-color:#064F90"/>
		</linearGradient>
		<path fill="url(#SVGID_2_)" d="M40.598,18.528c-0.264-0.189-0.629-0.283-1.093-0.283c-0.615,0-1.122,0.287-1.521,0.862
			c-0.399,0.575-0.599,1.331-0.599,2.27v4.532h-1.586v-8.951h1.586v1.821h0.032c0.453-1.316,1.235-1.975,2.347-1.975
			c0.361,0,0.639,0.04,0.834,0.121V18.528z"/>
		<linearGradient id="SVGID_3_" gradientUnits="userSpaceOnUse" x1="91.6942" y1="54.3171" x2="40.3138" y2="17.8536">
			<stop  offset="0" style="stop-color:#568FCB"/>
			<stop  offset="1" style="stop-color:#064F90"/>
		</linearGradient>
		<path fill="url(#SVGID_3_)" d="M49.185,21.838h-6.264c0.027,0.955,0.289,1.693,0.785,2.213c0.496,0.521,1.19,0.781,2.08,0.781
			c1.004,0,1.923-0.321,2.76-0.963v1.416c-0.788,0.556-1.832,0.834-3.132,0.834c-1.295,0-2.305-0.41-3.031-1.23
			c-0.726-0.82-1.089-1.958-1.089-3.415c0-1.37,0.398-2.501,1.194-3.391c0.796-0.89,1.784-1.335,2.966-1.335
			c1.171,0,2.085,0.376,2.744,1.129c0.658,0.753,0.987,1.806,0.987,3.16V21.838z M47.598,20.567
			c-0.005-0.809-0.197-1.435-0.575-1.878c-0.378-0.442-0.909-0.664-1.594-0.664c-0.631,0-1.178,0.235-1.639,0.704
			c-0.461,0.469-0.751,1.082-0.87,1.837H47.598z"/>
		<linearGradient id="SVGID_4_" gradientUnits="userSpaceOnUse" x1="94.6321" y1="50.1775" x2="43.2516" y2="13.7139">
			<stop  offset="0" style="stop-color:#568FCB"/>
			<stop  offset="1" style="stop-color:#064F90"/>
		</linearGradient>
		<path fill="url(#SVGID_4_)" d="M51.507,17.581c0.89-0.556,1.918-0.834,3.083-0.834c2.158,0,3.237,1.133,3.237,3.399v5.762h-1.57
			v-1.384h-0.04c-0.621,1.063-1.535,1.594-2.744,1.594c-0.869,0-1.559-0.235-2.072-0.704c-0.513-0.469-0.769-1.103-0.769-1.902
			c0-1.672,0.99-2.646,2.97-2.922l2.654-0.372c0-1.462-0.604-2.193-1.813-2.193c-1.074,0-2.053,0.362-2.938,1.084V17.581z
			 M54.162,21.7c-0.734,0.097-1.24,0.281-1.517,0.55c-0.278,0.27-0.417,0.647-0.417,1.133c0,0.426,0.151,0.774,0.453,1.044
			c0.302,0.27,0.701,0.405,1.198,0.405c0.691,0,1.26-0.243,1.708-0.728c0.448-0.486,0.672-1.095,0.672-1.829v-0.858L54.162,21.7z"/>
		<linearGradient id="SVGID_5_" gradientUnits="userSpaceOnUse" x1="98.6454" y1="44.5223" x2="47.265" y2="8.0587">
			<stop  offset="0" style="stop-color:#568FCB"/>
			<stop  offset="1" style="stop-color:#064F90"/>
		</linearGradient>
		<path fill="url(#SVGID_5_)" d="M73.342,25.909h-1.586V20.77c0-0.971-0.151-1.666-0.453-2.084
			c-0.302-0.418-0.799-0.627-1.489-0.627c-0.583,0-1.082,0.273-1.497,0.817c-0.416,0.545-0.623,1.19-0.623,1.934v5.099h-1.586
			v-5.301c0-1.7-0.656-2.549-1.967-2.549c-0.604,0-1.105,0.259-1.501,0.777s-0.595,1.179-0.595,1.983v5.09h-1.586v-8.951h1.586
			v1.416h0.032c0.637-1.084,1.567-1.627,2.792-1.627c0.599,0,1.128,0.165,1.586,0.494c0.458,0.329,0.777,0.774,0.955,1.335
			c0.664-1.219,1.656-1.829,2.978-1.829c1.969,0,2.954,1.214,2.954,3.642V25.909z"/>
		<linearGradient id="SVGID_6_" gradientUnits="userSpaceOnUse" x1="103.7826" y1="37.2836" x2="52.4021" y2="0.82">
			<stop  offset="0" style="stop-color:#568FCB"/>
			<stop  offset="1" style="stop-color:#064F90"/>
		</linearGradient>
		<path fill="url(#SVGID_6_)" d="M85.344,25.909h-1.91l-2.08-3.48c-0.416-0.696-0.796-1.169-1.141-1.42
			c-0.345-0.251-0.758-0.376-1.238-0.376h-1.165v5.277h-1.619V13.373h3.82c1.219,0,2.174,0.294,2.865,0.882
			c0.691,0.588,1.036,1.411,1.036,2.468c0,1.737-0.928,2.865-2.784,3.383v0.04c0.345,0.146,0.643,0.353,0.894,0.623
			c0.251,0.27,0.576,0.731,0.975,1.384L85.344,25.909z M77.809,14.789v4.427h1.91c0.739,0,1.339-0.216,1.801-0.647
			c0.461-0.432,0.692-0.998,0.692-1.7c0-0.653-0.21-1.163-0.631-1.53c-0.421-0.367-1.033-0.55-1.837-0.55H77.809z"/>
		<linearGradient id="SVGID_7_" gradientUnits="userSpaceOnUse" x1="106.5267" y1="33.4169" x2="55.1463" y2="-3.0467">
			<stop  offset="0" style="stop-color:#568FCB"/>
			<stop  offset="1" style="stop-color:#064F90"/>
		</linearGradient>
		<path fill="url(#SVGID_7_)" d="M87.019,17.581c0.89-0.556,1.918-0.834,3.083-0.834c2.158,0,3.237,1.133,3.237,3.399v5.762h-1.57
			v-1.384h-0.04c-0.621,1.063-1.535,1.594-2.744,1.594c-0.869,0-1.559-0.235-2.072-0.704c-0.513-0.469-0.769-1.103-0.769-1.902
			c0-1.672,0.99-2.646,2.97-2.922l2.654-0.372c0-1.462-0.604-2.193-1.813-2.193c-1.074,0-2.053,0.362-2.938,1.084V17.581z
			 M89.674,21.7c-0.734,0.097-1.24,0.281-1.517,0.55c-0.278,0.27-0.417,0.647-0.417,1.133c0,0.426,0.151,0.774,0.453,1.044
			c0.302,0.27,0.701,0.405,1.198,0.405c0.691,0,1.26-0.243,1.708-0.728c0.448-0.486,0.672-1.095,0.672-1.829v-0.858L89.674,21.7z"/>
		<linearGradient id="SVGID_8_" gradientUnits="userSpaceOnUse" x1="111.2312" y1="26.7878" x2="59.8508" y2="-9.6758">
			<stop  offset="0" style="stop-color:#568FCB"/>
			<stop  offset="1" style="stop-color:#064F90"/>
		</linearGradient>
		<path fill="url(#SVGID_8_)" d="M103.739,25.909h-1.586V24.42h-0.032c-0.653,1.133-1.667,1.7-3.043,1.7
			c-1.133,0-2.034-0.403-2.703-1.21c-0.669-0.806-1.004-1.895-1.004-3.265c0-1.478,0.378-2.664,1.133-3.557
			c0.755-0.893,1.743-1.339,2.962-1.339c1.219,0,2.104,0.475,2.654,1.424h0.032v-5.511h1.586V25.909z M102.161,20.584
			c0-0.717-0.236-1.318-0.708-1.801c-0.472-0.483-1.053-0.724-1.744-0.724c-0.842,0-1.505,0.314-1.991,0.943
			c-0.486,0.629-0.728,1.485-0.728,2.57c0,0.998,0.233,1.787,0.7,2.367c0.467,0.58,1.089,0.87,1.865,0.87
			c0.766,0,1.392-0.284,1.878-0.854c0.486-0.569,0.728-1.277,0.728-2.124V20.584z"/>
		<linearGradient id="SVGID_9_" gradientUnits="userSpaceOnUse" x1="113.3681" y1="23.7767" x2="61.9876" y2="-12.6868">
			<stop  offset="0" style="stop-color:#568FCB"/>
			<stop  offset="1" style="stop-color:#064F90"/>
		</linearGradient>
		<path fill="url(#SVGID_9_)" d="M106.377,13.802c0-0.28,0.096-0.517,0.287-0.708c0.191-0.191,0.428-0.287,0.708-0.287
			c0.286,0,0.527,0.094,0.724,0.283c0.197,0.189,0.295,0.426,0.295,0.712c0,0.281-0.099,0.514-0.295,0.7
			c-0.197,0.186-0.438,0.279-0.724,0.279c-0.286,0-0.523-0.093-0.712-0.279C106.472,14.316,106.377,14.082,106.377,13.802z
			 M106.564,25.909v-8.951h1.586v8.951H106.564z"/>
		<linearGradient id="SVGID_10_" gradientUnits="userSpaceOnUse" x1="114.6075" y1="22.0303" x2="63.2271" y2="-14.4333">
			<stop  offset="0" style="stop-color:#568FCB"/>
			<stop  offset="1" style="stop-color:#064F90"/>
		</linearGradient>
		<path fill="url(#SVGID_10_)" d="M117.756,16.958l-2.994,4.508l2.954,4.443h-1.845l-1.708-2.849
			c-0.092-0.151-0.221-0.383-0.388-0.696h-0.032c-0.005,0.032-0.14,0.264-0.405,0.696l-1.74,2.849h-1.821l3.043-4.394l-2.905-4.556
			h1.845l1.675,2.994c0.102,0.184,0.227,0.421,0.372,0.712h0.032l2.177-3.707H117.756z"/>
	</g>
	<linearGradient id="SVGID_11_" gradientUnits="userSpaceOnUse" x1="13.8299" y1="34.131" x2="5.5945" y2="14.0346">
		<stop  offset="0" style="stop-color:#568FCB"/>
		<stop  offset="1" style="stop-color:#064F90"/>
	</linearGradient>
	<rect x="8.158" y="21.225" fill="url(#SVGID_11_)" width="1.223" height="1.112"/>
	<linearGradient id="SVGID_12_" gradientUnits="userSpaceOnUse" x1="19.1293" y1="31.9593" x2="10.894" y2="11.8629">
		<stop  offset="0" style="stop-color:#568FCB"/>
		<stop  offset="1" style="stop-color:#064F90"/>
	</linearGradient>
	<rect x="12.532" y="16.796" fill="url(#SVGID_12_)" width="1.223" height="1.112"/>
	<linearGradient id="SVGID_13_" gradientUnits="userSpaceOnUse" x1="17.5751" y1="32.5962" x2="9.3397" y2="12.4998">
		<stop  offset="0" style="stop-color:#568FCB"/>
		<stop  offset="1" style="stop-color:#064F90"/>
	</linearGradient>
	<rect x="12.532" y="21.225" fill="url(#SVGID_13_)" width="1.223" height="1.112"/>
	<linearGradient id="SVGID_14_" gradientUnits="userSpaceOnUse" x1="16.6446" y1="32.9775" x2="8.4092" y2="12.8812">
		<stop  offset="0" style="stop-color:#568FCB"/>
		<stop  offset="1" style="stop-color:#064F90"/>
	</linearGradient>
	<path fill="url(#SVGID_14_)" d="M2.201,10.662v17.956h17.956V10.662H2.201z M18.11,13.497v3.299h-1.223v1.112h1.223v3.318h-1.223
		v1.112h1.223v3.206v1.112h-1.223h-3.132v-1.112h-1.223v1.112H9.381v-1.112H8.158v1.112H5.47H4.247v-1.112v-3.206H5.47v-1.112H4.247
		v-3.318H5.47v-1.112H4.247v-3.299v-1.112H5.47h2.687v1.112h1.223v-1.112h3.151v1.112h1.223v-1.112h3.132h1.223V13.497z"/>
	<linearGradient id="SVGID_15_" gradientUnits="userSpaceOnUse" x1="15.3842" y1="33.494" x2="7.1488" y2="13.3977">
		<stop  offset="0" style="stop-color:#568FCB"/>
		<stop  offset="1" style="stop-color:#064F90"/>
	</linearGradient>
	<rect x="8.158" y="16.796" fill="url(#SVGID_15_)" width="1.223" height="1.112"/>
	<linearGradient id="SVGID_16_" gradientUnits="userSpaceOnUse" x1="18.6821" y1="32.1426" x2="10.4467" y2="12.0462">
		<stop  offset="0" style="stop-color:#568FCB"/>
		<stop  offset="1" style="stop-color:#064F90"/>
	</linearGradient>
	<rect x="13.755" y="22.338" fill="url(#SVGID_16_)" width="3.132" height="3.206"/>
	<linearGradient id="SVGID_17_" gradientUnits="userSpaceOnUse" x1="14.9449" y1="33.6741" x2="6.7095" y2="13.5777">
		<stop  offset="0" style="stop-color:#568FCB"/>
		<stop  offset="1" style="stop-color:#064F90"/>
	</linearGradient>
	<rect x="9.381" y="22.338" fill="url(#SVGID_17_)" width="3.151" height="3.206"/>
	<linearGradient id="SVGID_18_" gradientUnits="userSpaceOnUse" x1="16.4796" y1="33.0451" x2="8.2443" y2="12.9488">
		<stop  offset="0" style="stop-color:#568FCB"/>
		<stop  offset="1" style="stop-color:#064F90"/>
	</linearGradient>
	<rect x="9.381" y="17.908" fill="url(#SVGID_18_)" width="3.151" height="3.318"/>
	<linearGradient id="SVGID_19_" gradientUnits="userSpaceOnUse" x1="11.3981" y1="35.1275" x2="3.1627" y2="15.0311">
		<stop  offset="0" style="stop-color:#568FCB"/>
		<stop  offset="1" style="stop-color:#064F90"/>
	</linearGradient>
	<rect x="5.47" y="22.338" fill="url(#SVGID_19_)" width="2.687" height="3.206"/>
	<linearGradient id="SVGID_20_" gradientUnits="userSpaceOnUse" x1="21.7679" y1="30.878" x2="13.5325" y2="10.7817">
		<stop  offset="0" style="stop-color:#568FCB"/>
		<stop  offset="1" style="stop-color:#064F90"/>
	</linearGradient>
	<rect x="13.755" y="13.497" fill="url(#SVGID_20_)" width="3.132" height="3.299"/>
	<linearGradient id="SVGID_21_" gradientUnits="userSpaceOnUse" x1="20.2169" y1="31.5136" x2="11.9815" y2="11.4173">
		<stop  offset="0" style="stop-color:#568FCB"/>
		<stop  offset="1" style="stop-color:#064F90"/>
	</linearGradient>
	<rect x="13.755" y="17.908" fill="url(#SVGID_21_)" width="3.132" height="3.318"/>
	<linearGradient id="SVGID_22_" gradientUnits="userSpaceOnUse" x1="12.9328" y1="34.4986" x2="4.6974" y2="14.4022">
		<stop  offset="0" style="stop-color:#568FCB"/>
		<stop  offset="1" style="stop-color:#064F90"/>
	</linearGradient>
	<rect x="5.47" y="17.908" fill="url(#SVGID_22_)" width="2.687" height="3.318"/>
	<linearGradient id="SVGID_23_" gradientUnits="userSpaceOnUse" x1="14.4838" y1="33.863" x2="6.2484" y2="13.7666">
		<stop  offset="0" style="stop-color:#568FCB"/>
		<stop  offset="1" style="stop-color:#064F90"/>
	</linearGradient>
	<rect x="5.47" y="13.497" fill="url(#SVGID_23_)" width="2.687" height="3.299"/>
	<linearGradient id="SVGID_24_" gradientUnits="userSpaceOnUse" x1="18.0306" y1="32.4095" x2="9.7953" y2="12.3132">
		<stop  offset="0" style="stop-color:#568FCB"/>
		<stop  offset="1" style="stop-color:#064F90"/>
	</linearGradient>
	<rect x="9.381" y="13.497" fill="url(#SVGID_24_)" width="3.151" height="3.299"/>
</g>
</svg>
