<?xml version="1.0" encoding="utf-8"?>
<!-- Generator: Adobe Illustrator 17.0.0, SVG Export Plug-In . SVG Version: 6.00 Build 0)  -->
<!DOCTYPE svg PUBLIC "-//W3C//DTD SVG 1.1//EN" "http://www.w3.org/Graphics/SVG/1.1/DTD/svg11.dtd">
<svg version="1.1" id="Layer_1" xmlns="http://www.w3.org/2000/svg" xmlns:xlink="http://www.w3.org/1999/xlink" x="0px" y="0px"
	 width="1200px" height="800px" viewBox="0 0 1200 800" enable-background="new 0 0 1200 800" xml:space="preserve">
<g>
	<linearGradient id="SVGID_1_" gradientUnits="userSpaceOnUse" x1="715.1683" y1="589.5355" x2="467.1683" y2="413.5355">
		<stop  offset="0" style="stop-color:#568FCB"/>
		<stop  offset="1" style="stop-color:#064F90"/>
	</linearGradient>
	<path fill="url(#SVGID_1_)" d="M411.988,414.972v-60.508h17.266c9.166,0,16.79,2.67,22.871,8.008
		c6.08,5.339,9.121,12.5,9.121,21.484c0,9.375-3.041,16.889-9.121,22.539c-6.081,5.651-13.913,8.477-23.496,8.477H411.988z
		 M419.801,361.417v46.641h8.789c7.682,0,13.678-2.096,17.988-6.289c4.31-4.192,6.465-10.064,6.465-17.617
		c0-7.552-2.214-13.229-6.641-17.031c-4.428-3.802-10.248-5.703-17.461-5.703H419.801z"/>
	<linearGradient id="SVGID_2_" gradientUnits="userSpaceOnUse" x1="730.2034" y1="568.3497" x2="482.2035" y2="392.3497">
		<stop  offset="0" style="stop-color:#568FCB"/>
		<stop  offset="1" style="stop-color:#064F90"/>
	</linearGradient>
	<path fill="url(#SVGID_2_)" d="M495.113,379.347c-1.276-0.911-3.034-1.367-5.273-1.367c-2.969,0-5.417,1.387-7.344,4.16
		c-1.928,2.773-2.891,6.426-2.891,10.957v21.875h-7.656v-43.203h7.656v8.789h0.156c2.188-6.354,5.963-9.531,11.328-9.531
		c1.744,0,3.086,0.195,4.023,0.586V379.347z"/>
	<linearGradient id="SVGID_3_" gradientUnits="userSpaceOnUse" x1="741.7412" y1="552.0919" x2="493.7412" y2="376.0919">
		<stop  offset="0" style="stop-color:#568FCB"/>
		<stop  offset="1" style="stop-color:#064F90"/>
	</linearGradient>
	<path fill="url(#SVGID_3_)" d="M536.559,395.323h-30.234c0.13,4.609,1.393,8.171,3.789,10.684c2.396,2.514,5.742,3.77,10.039,3.77
		c4.844,0,9.283-1.549,13.32-4.648v6.836c-3.803,2.683-8.842,4.023-15.117,4.023c-6.25,0-11.127-1.979-14.629-5.938
		c-3.503-3.958-5.254-9.453-5.254-16.484c0-6.614,1.92-12.07,5.762-16.367c3.841-4.297,8.613-6.445,14.316-6.445
		c5.65,0,10.064,1.816,13.242,5.449c3.177,3.633,4.766,8.718,4.766,15.254V395.323z M528.902,389.19
		c-0.026-3.906-0.951-6.927-2.773-9.063c-1.823-2.135-4.389-3.203-7.695-3.203c-3.047,0-5.684,1.133-7.91,3.398
		s-3.627,5.222-4.199,8.867H528.902z"/>
	<linearGradient id="SVGID_4_" gradientUnits="userSpaceOnUse" x1="755.9214" y1="532.1108" x2="507.9214" y2="356.1108">
		<stop  offset="0" style="stop-color:#568FCB"/>
		<stop  offset="1" style="stop-color:#064F90"/>
	</linearGradient>
	<path fill="url(#SVGID_4_)" d="M547.77,374.776c4.297-2.682,9.258-4.023,14.883-4.023c10.416,0,15.625,5.469,15.625,16.406v27.813
		h-7.578v-6.68h-0.195c-2.995,5.131-7.409,7.695-13.242,7.695c-4.193,0-7.526-1.133-10-3.398c-2.475-2.266-3.711-5.325-3.711-9.18
		c0-8.072,4.778-12.773,14.336-14.102l12.813-1.797c0-7.057-2.917-10.586-8.75-10.586c-5.183,0-9.909,1.745-14.18,5.234V374.776z
		 M560.582,394.659c-3.542,0.469-5.983,1.354-7.324,2.656c-1.342,1.303-2.012,3.125-2.012,5.469c0,2.058,0.729,3.737,2.188,5.039
		c1.458,1.303,3.385,1.953,5.781,1.953c3.333,0,6.08-1.172,8.242-3.516c2.161-2.344,3.242-5.286,3.242-8.828v-4.141L560.582,394.659
		z"/>
	<linearGradient id="SVGID_5_" gradientUnits="userSpaceOnUse" x1="775.2928" y1="504.8146" x2="527.2928" y2="328.8146">
		<stop  offset="0" style="stop-color:#568FCB"/>
		<stop  offset="1" style="stop-color:#064F90"/>
	</linearGradient>
	<path fill="url(#SVGID_5_)" d="M653.16,414.972h-7.656v-24.805c0-4.688-0.729-8.04-2.188-10.059
		c-1.459-2.018-3.854-3.027-7.188-3.027c-2.813,0-5.222,1.315-7.227,3.945c-2.006,2.631-3.008,5.742-3.008,9.336v24.609h-7.656
		v-25.586c0-8.203-3.164-12.305-9.492-12.305c-2.917,0-5.332,1.25-7.246,3.75s-2.871,5.69-2.871,9.57v24.57h-7.656v-43.203h7.656
		v6.836h0.156c3.072-5.234,7.564-7.852,13.477-7.852c2.891,0,5.442,0.795,7.656,2.383c2.213,1.589,3.75,3.737,4.609,6.445
		c3.203-5.885,7.994-8.828,14.375-8.828c9.505,0,14.258,5.859,14.258,17.578V414.972z"/>
	<linearGradient id="SVGID_6_" gradientUnits="userSpaceOnUse" x1="800.0885" y1="469.8753" x2="552.0885" y2="293.8753">
		<stop  offset="0" style="stop-color:#568FCB"/>
		<stop  offset="1" style="stop-color:#064F90"/>
	</linearGradient>
	<path fill="url(#SVGID_6_)" d="M711.09,414.972h-9.219l-10.039-16.797c-2.006-3.359-3.842-5.645-5.508-6.855
		c-1.667-1.211-3.659-1.816-5.977-1.816h-5.625v25.469h-7.813v-60.508h18.438c5.885,0,10.494,1.42,13.828,4.258
		c3.333,2.839,5,6.811,5,11.914c0,8.386-4.479,13.828-13.438,16.328v0.195c1.666,0.703,3.105,1.706,4.316,3.008
		c1.211,1.303,2.779,3.529,4.707,6.68L711.09,414.972z M674.723,361.3v21.367h9.219c3.567,0,6.465-1.041,8.691-3.125
		c2.227-2.083,3.34-4.817,3.34-8.203c0-3.15-1.016-5.611-3.047-7.383c-2.031-1.771-4.987-2.656-8.867-2.656H674.723z"/>
	<linearGradient id="SVGID_7_" gradientUnits="userSpaceOnUse" x1="813.3336" y1="451.2118" x2="565.3336" y2="275.2118">
		<stop  offset="0" style="stop-color:#568FCB"/>
		<stop  offset="1" style="stop-color:#064F90"/>
	</linearGradient>
	<path fill="url(#SVGID_7_)" d="M719.176,374.776c4.297-2.682,9.258-4.023,14.883-4.023c10.416,0,15.625,5.469,15.625,16.406v27.813
		h-7.578v-6.68h-0.195c-2.995,5.131-7.409,7.695-13.242,7.695c-4.193,0-7.526-1.133-10-3.398c-2.475-2.266-3.711-5.325-3.711-9.18
		c0-8.072,4.778-12.773,14.336-14.102l12.813-1.797c0-7.057-2.917-10.586-8.75-10.586c-5.183,0-9.909,1.745-14.18,5.234V374.776z
		 M731.988,394.659c-3.542,0.469-5.983,1.354-7.324,2.656c-1.342,1.303-2.012,3.125-2.012,5.469c0,2.058,0.729,3.737,2.188,5.039
		c1.458,1.303,3.385,1.953,5.781,1.953c3.333,0,6.08-1.172,8.242-3.516c2.161-2.344,3.242-5.286,3.242-8.828v-4.141L731.988,394.659
		z"/>
	<linearGradient id="SVGID_8_" gradientUnits="userSpaceOnUse" x1="836.0411" y1="419.2148" x2="588.0411" y2="243.2148">
		<stop  offset="0" style="stop-color:#568FCB"/>
		<stop  offset="1" style="stop-color:#064F90"/>
	</linearGradient>
	<path fill="url(#SVGID_8_)" d="M799.879,414.972h-7.656v-7.188h-0.156c-3.151,5.469-8.047,8.203-14.688,8.203
		c-5.469,0-9.818-1.946-13.047-5.84c-3.229-3.893-4.844-9.146-4.844-15.762c0-7.135,1.822-12.857,5.469-17.168
		c3.646-4.31,8.411-6.465,14.297-6.465c5.885,0,10.156,2.292,12.813,6.875h0.156v-26.602h7.656V414.972z M792.262,389.269
		c0-3.463-1.14-6.36-3.418-8.691c-2.279-2.33-5.085-3.496-8.418-3.496c-4.063,0-7.266,1.518-9.609,4.551
		c-2.344,3.034-3.516,7.168-3.516,12.402c0,4.818,1.126,8.627,3.379,11.426c2.252,2.8,5.254,4.199,9.004,4.199
		c3.697,0,6.719-1.373,9.063-4.121c2.344-2.747,3.516-6.165,3.516-10.254V389.269z"/>
	<linearGradient id="SVGID_9_" gradientUnits="userSpaceOnUse" x1="846.3552" y1="404.6814" x2="598.3552" y2="228.6814">
		<stop  offset="0" style="stop-color:#568FCB"/>
		<stop  offset="1" style="stop-color:#064F90"/>
	</linearGradient>
	<path fill="url(#SVGID_9_)" d="M812.613,356.534c0-1.354,0.462-2.493,1.387-3.418c0.924-0.924,2.063-1.387,3.418-1.387
		c1.38,0,2.545,0.456,3.496,1.367c0.95,0.912,1.426,2.058,1.426,3.438c0,1.354-0.476,2.48-1.426,3.379
		c-0.951,0.898-2.116,1.348-3.496,1.348c-1.381,0-2.526-0.449-3.438-1.348C813.068,359.015,812.613,357.889,812.613,356.534z
		 M813.512,414.972v-43.203h7.656v43.203H813.512z"/>
	<linearGradient id="SVGID_10_" gradientUnits="userSpaceOnUse" x1="852.3376" y1="396.2516" x2="604.3376" y2="220.2516">
		<stop  offset="0" style="stop-color:#568FCB"/>
		<stop  offset="1" style="stop-color:#064F90"/>
	</linearGradient>
	<path fill="url(#SVGID_10_)" d="M867.535,371.769l-14.453,21.758l14.258,21.445h-8.906l-8.242-13.75
		c-0.443-0.729-1.068-1.849-1.875-3.359h-0.156c-0.026,0.156-0.678,1.276-1.953,3.359l-8.398,13.75h-8.789l14.688-21.211
		l-14.023-21.992h8.906l8.086,14.453c0.494,0.886,1.094,2.031,1.797,3.438h0.156l10.508-17.891H867.535z"/>
</g>
<linearGradient id="SVGID_11_" gradientUnits="userSpaceOnUse" x1="365.9102" y1="454.6586" x2="326.1602" y2="357.6586">
	<stop  offset="0" style="stop-color:#568FCB"/>
	<stop  offset="1" style="stop-color:#064F90"/>
</linearGradient>
<rect x="338.531" y="392.367" fill="url(#SVGID_11_)" width="5.904" height="5.368"/>
<linearGradient id="SVGID_12_" gradientUnits="userSpaceOnUse" x1="391.4893" y1="444.1765" x2="351.7393" y2="347.1765">
	<stop  offset="0" style="stop-color:#568FCB"/>
	<stop  offset="1" style="stop-color:#064F90"/>
</linearGradient>
<rect x="359.644" y="370.986" fill="url(#SVGID_12_)" width="5.904" height="5.368"/>
<linearGradient id="SVGID_13_" gradientUnits="userSpaceOnUse" x1="383.9872" y1="447.2507" x2="344.2372" y2="350.2507">
	<stop  offset="0" style="stop-color:#568FCB"/>
	<stop  offset="1" style="stop-color:#064F90"/>
</linearGradient>
<rect x="359.644" y="392.367" fill="url(#SVGID_13_)" width="5.904" height="5.368"/>
<linearGradient id="SVGID_14_" gradientUnits="userSpaceOnUse" x1="379.4958" y1="449.0913" x2="339.7458" y2="352.0913">
	<stop  offset="0" style="stop-color:#568FCB"/>
	<stop  offset="1" style="stop-color:#064F90"/>
</linearGradient>
<path fill="url(#SVGID_14_)" d="M309.78,341.378v86.667h86.667v-86.667H309.78z M386.572,355.062v15.924h-5.904v5.368h5.904v16.013
	h-5.904v5.368h5.904v15.477v5.368h-5.904h-15.119v-5.368h-5.904v5.368h-15.208v-5.368h-5.904v5.368h-12.972h-5.904v-5.368v-15.477
	h5.904v-5.368h-5.904v-16.013h5.904v-5.368h-5.904v-15.924v-5.368h5.904h12.972v5.368h5.904v-5.368h15.208v5.368h5.904v-5.368
	h15.119h5.904V355.062z"/>
<linearGradient id="SVGID_15_" gradientUnits="userSpaceOnUse" x1="373.4123" y1="451.5843" x2="333.6623" y2="354.5843">
	<stop  offset="0" style="stop-color:#568FCB"/>
	<stop  offset="1" style="stop-color:#064F90"/>
</linearGradient>
<rect x="338.531" y="370.986" fill="url(#SVGID_15_)" width="5.904" height="5.368"/>
<linearGradient id="SVGID_16_" gradientUnits="userSpaceOnUse" x1="389.3306" y1="445.061" x2="349.5806" y2="348.061">
	<stop  offset="0" style="stop-color:#568FCB"/>
	<stop  offset="1" style="stop-color:#064F90"/>
</linearGradient>
<rect x="365.548" y="397.735" fill="url(#SVGID_16_)" width="15.119" height="15.477"/>
<linearGradient id="SVGID_17_" gradientUnits="userSpaceOnUse" x1="371.2919" y1="452.4532" x2="331.5419" y2="355.4532">
	<stop  offset="0" style="stop-color:#568FCB"/>
	<stop  offset="1" style="stop-color:#064F90"/>
</linearGradient>
<rect x="344.436" y="397.735" fill="url(#SVGID_17_)" width="15.208" height="15.477"/>
<linearGradient id="SVGID_18_" gradientUnits="userSpaceOnUse" x1="378.6998" y1="449.4175" x2="338.9498" y2="352.4175">
	<stop  offset="0" style="stop-color:#568FCB"/>
	<stop  offset="1" style="stop-color:#064F90"/>
</linearGradient>
<rect x="344.436" y="376.354" fill="url(#SVGID_18_)" width="15.208" height="16.013"/>
<linearGradient id="SVGID_19_" gradientUnits="userSpaceOnUse" x1="354.1724" y1="459.4687" x2="314.4224" y2="362.4687">
	<stop  offset="0" style="stop-color:#568FCB"/>
	<stop  offset="1" style="stop-color:#064F90"/>
</linearGradient>
<rect x="325.559" y="397.735" fill="url(#SVGID_19_)" width="12.972" height="15.477"/>
<linearGradient id="SVGID_20_" gradientUnits="userSpaceOnUse" x1="404.2248" y1="438.9575" x2="364.4748" y2="341.9575">
	<stop  offset="0" style="stop-color:#568FCB"/>
	<stop  offset="1" style="stop-color:#064F90"/>
</linearGradient>
<rect x="365.548" y="355.062" fill="url(#SVGID_20_)" width="15.119" height="15.924"/>
<linearGradient id="SVGID_21_" gradientUnits="userSpaceOnUse" x1="396.7385" y1="442.0254" x2="356.9885" y2="345.0254">
	<stop  offset="0" style="stop-color:#568FCB"/>
	<stop  offset="1" style="stop-color:#064F90"/>
</linearGradient>
<rect x="365.548" y="376.354" fill="url(#SVGID_21_)" width="15.119" height="16.013"/>
<linearGradient id="SVGID_22_" gradientUnits="userSpaceOnUse" x1="361.5802" y1="456.433" x2="321.8302" y2="359.433">
	<stop  offset="0" style="stop-color:#568FCB"/>
	<stop  offset="1" style="stop-color:#064F90"/>
</linearGradient>
<rect x="325.559" y="376.354" fill="url(#SVGID_22_)" width="12.972" height="16.013"/>
<linearGradient id="SVGID_23_" gradientUnits="userSpaceOnUse" x1="369.0665" y1="453.3651" x2="329.3165" y2="356.3651">
	<stop  offset="0" style="stop-color:#568FCB"/>
	<stop  offset="1" style="stop-color:#064F90"/>
</linearGradient>
<rect x="325.559" y="355.062" fill="url(#SVGID_23_)" width="12.972" height="15.924"/>
<linearGradient id="SVGID_24_" gradientUnits="userSpaceOnUse" x1="386.1861" y1="446.3496" x2="346.4361" y2="349.3496">
	<stop  offset="0" style="stop-color:#568FCB"/>
	<stop  offset="1" style="stop-color:#064F90"/>
</linearGradient>
<rect x="344.436" y="355.062" fill="url(#SVGID_24_)" width="15.208" height="15.924"/>
</svg>
